<svg width="62" height="50" viewBox="0 0 62 50" fill="none" xmlns="http://www.w3.org/2000/svg">
<g filter="url(#filter0_d)">
<path fill-rule="evenodd" clip-rule="evenodd" d="M41.9821 26.7636L41.8633 24.7149L40.5697 26.3416C40.4667 26.4711 40.2474 26.7001 39.9674 26.9089C40.078 26.5545 40.1768 26.1504 40.2421 25.7047C40.468 24.161 40.3273 21.7918 38.3745 19.271L37.5551 18.2134L37.0182 19.4286C36.3989 20.8304 35.3968 21.5337 34.4655 21.2202C33.7485 20.979 33.1657 20.1857 32.8667 19.0435C32.5879 17.9783 32.4258 16.1037 33.2378 13.2226L33.5824 12L32.3038 12.2785C27.9907 13.2178 25.0843 16.1791 23.8987 20.842C23.4003 22.8021 23.3065 24.6591 23.3204 25.9152C22.3013 25.1186 21.7924 24.4197 21.7791 24.4012L20.8084 23.0224L20.3662 24.6368C20.1232 25.5242 20 26.4422 20 27.3653C20 33.1854 24.8612 37.9277 30.8643 37.9983C30.9094 37.9994 30.9546 38 31 38C31.0454 38 31.0906 37.9994 31.1357 37.9983C37.1388 37.9277 42 33.1854 42 27.3653C42 27.1705 41.994 26.968 41.9821 26.7636ZM31.0001 36.4752C28.9654 36.4752 27.3102 34.875 27.3102 32.908C27.3102 29.4753 28.9893 27.9375 30.2981 27.2602C30.1313 28.1318 30.2792 28.9576 30.557 29.5724C30.9711 30.4888 31.7099 31.089 32.5334 31.178C32.8569 31.2128 33.3984 31.1858 33.966 30.7865C34.4317 31.396 34.6898 32.1394 34.6898 32.908C34.6898 34.875 33.0346 36.4752 31.0001 36.4752ZM36.2669 32.908C36.2669 33.7645 36.0466 34.5723 35.6585 35.2814C38.1837 33.887 39.9815 31.3964 40.3523 28.4846C39.7244 28.8196 39.0815 28.9505 38.4659 28.8648L37.2432 28.6945L37.9178 27.6939C37.9217 27.6879 38.5044 26.7937 38.69 25.4249C38.8862 23.9778 38.5858 22.56 37.7963 21.197C37.4308 21.6898 37.0057 22.0834 36.5357 22.36C35.7193 22.8404 34.8003 22.947 33.9474 22.6602C32.7206 22.2475 31.7695 21.0657 31.3381 19.4177C30.9527 17.9458 30.9749 16.1332 31.3968 14.1191C28.3716 15.1819 26.3707 17.5471 25.4403 21.1673C24.6265 24.333 24.9719 27.3085 24.9755 27.3382L25.1602 28.8682L23.79 28.0827C22.8721 27.5562 22.1511 26.9889 21.6193 26.5017C21.5914 26.7882 21.5773 27.0764 21.5773 27.3652C21.5773 30.7514 23.4983 33.7118 26.342 35.2819C25.9536 34.5726 25.7333 33.7648 25.7333 32.908C25.7333 30.9413 26.2384 28.2301 28.6447 26.4817C30.0939 25.4286 31.5554 25.2415 31.6169 25.234L33.441 25.013L32.3494 26.4432C31.6616 27.3443 31.719 28.3353 32.0023 28.9621C32.2071 29.4155 32.5047 29.6407 32.7087 29.6628C32.9659 29.691 33.2247 29.4057 33.3558 29.2334L33.871 28.5568L34.5177 29.1181C35.6293 30.083 36.2669 31.4644 36.2669 32.908Z" fill="#ED9554"/>
</g>
<defs>
<filter id="filter0_d" x="0" y="-8" width="62" height="66" filterUnits="userSpaceOnUse" color-interpolation-filters="sRGB">
<feFlood flood-opacity="0" result="BackgroundImageFix"/>
<feColorMatrix in="SourceAlpha" type="matrix" values="0 0 0 0 0 0 0 0 0 0 0 0 0 0 0 0 0 0 127 0"/>
<feOffset/>
<feGaussianBlur stdDeviation="10"/>
<feColorMatrix type="matrix" values="0 0 0 0 0.802678 0 0 0 0 0.802678 0 0 0 0 0.802678 0 0 0 0.5 0"/>
<feBlend mode="normal" in2="BackgroundImageFix" result="effect1_dropShadow"/>
<feBlend mode="normal" in="SourceGraphic" in2="effect1_dropShadow" result="shape"/>
</filter>
</defs>
</svg>
